<?xml version="1.0" encoding="utf-8"?>
<!-- Generator: Adobe Illustrator 19.2.0, SVG Export Plug-In . SVG Version: 6.00 Build 0)  -->
<svg version="1.1" id="Layer_1" xmlns="http://www.w3.org/2000/svg" xmlns:xlink="http://www.w3.org/1999/xlink" x="0px" y="0px"
	 viewBox="0 0 356.7 70.5" style="enable-background:new 0 0 356.7 70.5;" xml:space="preserve">
<style type="text/css">
	.st0{fill-rule:evenodd;clip-rule:evenodd;fill:#171318;}
</style>
<g>
	<path class="st0" d="M87.3,6.9c-0.3-0.1-0.5-0.2-1-0.2C86.2,7.3,87,7,87.3,6.9z"/>
	<path class="st0" d="M85.9,6.1c-0.2-0.2-0.9-0.3-1,0.1C85.3,6.1,85.9,6.3,85.9,6.1z"/>
	<path class="st0" d="M80.9,11.1c0.2,0.2,0.8,0.1,1-0.1C81.6,11.1,81,10.8,80.9,11.1z"/>
	<path class="st0" d="M80.3,5.6c-0.6,0.1-1.4-0.1-1.7,0.3C79.4,6,80,6,80.3,5.6z"/>
	<path class="st0" d="M59.1,18.1c0.4,0.1,0.5-0.1,0.5-0.4l-0.6,0C59,17.8,59.1,18,59.1,18.1z"/>
	<path class="st0" d="M49.9,21.2c1.1,0.5,3,0.6,4,0.2c-1.9,0.1-3.3-0.4-5.1-0.2c-1.4-0.1,0,0.2,0.7,0.2
		C49.7,21.5,49.8,21.3,49.9,21.2z"/>
	<path class="st0" d="M53.7,15.3c-0.2-0.1-0.9-0.1-1,0.1C53.1,15.5,53.5,15.5,53.7,15.3z"/>
	<path class="st0" d="M51.1,30.9c-0.3-0.3-1-0.2-1.3,0C50.2,30.8,51,31.1,51.1,30.9z"/>
	<path class="st0" d="M50.9,17.6c0.4-0.2,1.2,0,1.6-0.3C51.9,17.3,50.6,17.1,50.9,17.6z"/>
	<path class="st0" d="M52,15.5c-0.6,0.1-1.3-0.1-1.7,0.2C50.9,15.7,51.7,15.8,52,15.5z"/>
	<path class="st0" d="M48.5,34c0.4-0.1,1,0,1.1-0.4C49.2,33.7,48.6,33.6,48.5,34z"/>
	<path class="st0" d="M46.2,30.6c0.8,0.1,2.4,0.4,2.9,0.1C48,30.5,47.3,30.4,46.2,30.6z"/>
	<path class="st0" d="M50,15.7c-0.8,0.3-1.7-0.4-2.4-0.1C48.2,15.6,49.2,16.1,50,15.7z"/>
	<path class="st0" d="M46.5,21.3c0.4-0.1,0.9-0.1,1.2-0.2C47.2,21.1,46.5,20.8,46.5,21.3z"/>
	<path class="st0" d="M46.5,19.8c-0.3,0-1-0.3-1.1,0C45.9,19.9,46.2,20,46.5,19.8z"/>
	<path class="st0" d="M44.5,17.9c-0.3,0.6,0.8,0.7,0.9,0.4c-0.4-0.1-0.4,0.1-0.7,0C44.8,18.1,44.8,17.8,44.5,17.9z"/>
	<path class="st0" d="M39.6,31.3c-0.2-0.1-0.7-0.1-1.1-0.2c-0.2-0.2-0.6-0.2-0.6,0c0,0-0.1,0-0.1,0c0,0,0.1,0,0.1,0c0,0,0,0,0,0
		c0.1,0,0.1,0,0.1,0C38.6,31.3,39.1,31.4,39.6,31.3z"/>
	<path class="st0" d="M39.1,31.9l-0.7-0.1C38.1,32.2,39.3,32.3,39.1,31.9z"/>
	<path class="st0" d="M37.1,38.1c-0.2-0.1-0.9-0.2-1.1,0.1C36.4,38.3,36.8,38.3,37.1,38.1z"/>
	<path class="st0" d="M33.1,37.1C31.4,36.9,31.8,37.5,33.1,37.1L33.1,37.1z"/>
	<path class="st0" d="M49.8,17.2c1.3,0.1-0.5-0.3-0.7,0c0.1,0.1,0.6,0.3,0.7,0.1C49.7,17.3,49.6,17.2,49.8,17.2z"/>
	<path class="st0" d="M40.6,16.6c-0.8,0.7-3-0.4-4.1-0.2c0.6,0.5,2,0.5,2.9,0.6l-0.1,0.5c1.5-0.6,3.5-0.1,4.7,0
		c1.4-0.9,3.8,0.8,5-0.3c-1.3,0.1-2.6-0.1-3.9-0.2c-1.3-0.2-2.6-0.3-3.8-0.1C41.1,16.8,40.7,16.8,40.6,16.6z"/>
	<path class="st0" d="M43.8,17.6c0,0,0.1-0.1,0.2-0.1C43.8,17.5,43.6,17.6,43.8,17.6z"/>
	<polygon class="st0" points="44,17.5 44,17.5 44,17.5 	"/>
	<path class="st0" d="M37.7,33.2c0.3-0.2,0.7-0.2,0.9-0.4C38.4,32.5,37.6,33.2,37.7,33.2z"/>
	<path class="st0" d="M356.3,29.1c-0.2-3-0.9-5.5-0.7-7.8c-1.1-1.3-1-2.9-1.8-4.1c-0.5-0.8-1.5-1.5-2.1-2.2
		c-0.7-0.8-1.5-1.5-2.1-2.3c0-0.9-0.9-1-1.1-1.8c-1.1-0.5-1.9-1.2-3-1.7c-0.1-0.3-0.4-0.5-0.4-0.8c-2.3-1.5-4.6-3.3-7.6-3.8
		c-0.3,0-0.9-0.1-1.2-0.1c-2.3,0.1-5.8-0.2-6.9-1.4c-0.4-0.1-0.4,0.2-0.8,0.1c-0.3-0.6-1.5-1.7-2.5-1.6c-0.4,0-1,0.8-1.8,0.9
		c-1.2,0.2-2.3-0.8-3.3-0.7c-0.5,0.1-1,0.8-1.5,0.9c-1.3,0.4-4,0-5.1-0.2c-0.9-0.2-1.2-0.8-1.9-0.7c-0.6,0.1-1.1,0.7-1,1.6
		c-1.8,2-6.2,0.3-8.9,1.1c-1.9-0.8-3.9,0.3-5.8,0.1c-0.4,0-0.8-0.3-1.2-0.3c-0.6,0-1.5,0.3-2.4,0.4c-1.4,0.2-2.7,0.1-3.9,0.3
		c-1.8-1.3-3.2,0-4.7-0.1c-0.6-0.1-1.1-0.5-1.8-0.5c-0.5,0-1.1,0.3-1.7,0.2c-0.6-0.1-1.2-0.5-1.8-0.5c-0.4,0-0.8,0.2-1.1,0.1
		c-0.5-0.1-0.7-0.4-1.2-0.3c-0.5,0-1.1,0.5-1.6,0.5c-1.9,0.1-3.9-0.5-5.8,0.2c-3.2-1-6.1,0.1-9.9-1c-1,0.2-1.7,0.3-2.7,0
		c-0.2,0.1-0.2,0.4-0.6,0.3c-2-0.5-4.1,0.4-6.2-0.2c-0.1,0.1-0.2,0.3-0.3,0.3c-2.8-0.8-6.4-1.1-8.7-0.5c-1.7-0.7-3.8-0.1-5.9-0.3
		c-1-0.1-2-0.4-3-0.4c-1.9,0.2-4.3-0.3-6.1-0.2c-0.2,0-0.3,0-0.5,0.1c-0.4-0.1-0.8-0.1-1-0.2c-1.2,0.5-3-1-4.6-0.7
		c-0.7,0.1-1.2,0.5-1.3,1.1c-3.1,0-6.4-0.4-9-0.5c-1.1,0-2,0.3-3.2,0.4c-2,0.2-4-0.5-6-0.4c-0.5,0-1,0.3-1.5,0.3
		c-1.2,0.1-2.3-0.2-3.6-0.2c-3.1,0-6.1,0.6-9,0c-3.7,0.7-9,0.5-13.3,0.6c-1,0.7-1.9,0.1-2.8,0.2c-3,0.3-6.9,1-10.1,0.5
		c-11,1-22.4,1-33.3,1.7c0.1-0.1,0.3-0.1,0.4-0.2c-0.6,0.2-1.8-0.1-2.4,0.3c0,0,0,0,0,0c0.2-0.3-0.3-0.1-0.6,0.1c0,0-0.1,0-0.1,0
		l0-0.2c-1.7,0.1-3.4,0.2-5.1,0.3c-0.4,0-0.8,0-1.2,0.1c-0.5,0-1.1,0.1-1.6,0.1C116.2,6,115.9,6,115.6,6c-0.2,0.1-0.5,0.2-0.7,0.3
		c-0.8,0-1.5,0.1-2.2,0.1c-0.9,0-1.8-0.1-2.7,0c0,0.1-0.1,0.1-0.2,0.2c-0.8,0-1.6,0.1-2.3,0.1c0,0-0.1-0.1-0.2-0.1
		c0,0-0.1,0.1-0.1,0.1c0,0,0,0-0.1,0c-0.5,0.4-2.4,0-2.9,0.8c-0.8-0.2-1-0.3-1.8,0c0.3-0.6-0.8,0-0.7-0.5c-0.6,0.3-1.4-0.2-1.6,0.2
		c0.8,0.1,1.4-0.3,1.6,0.2c-0.8-0.1-1.6,0.2-2.2-0.2c-0.6,0.2-1.8,0.6-2.3,0.2c0,0.5-0.7-0.1-1.1,0.3c0,0.2,0.2,0.3,0,0.3
		C95.7,8.1,95,7.7,94.6,8c0.2,0,0.3,0,0.3,0.2c-0.4,0.1-0.4-0.2-0.8-0.1c0,0.3,0.6,0.1,0.8,0.3c0.3-0.3,1.8-0.4,2-0.2
		c-0.1,0-0.1,0-0.1,0.1c-0.3,0-0.6,0.1-0.9,0.1c0,0,0,0-0.1,0c0,0,0,0,0,0c-0.4,0.1-0.8,0.1-1.2,0.2c-0.2-0.1-0.5,0-0.6,0.1
		c-1.8,0.5-3.5,1-5.3,1.3c-0.4-0.2-1.4-0.8-1.8-0.3c0.5,0.1,1.2,0.1,1.2,0.6c-0.1,0-0.1,0-0.2,0.1c-0.9-0.2-2,0.1-2.6,0.5
		c-1.2,0-1.7-0.3-2.8,0.1c-0.3,0,0.2,0.6-0.3,0.6c-1.1-0.3-1.9-0.1-2.7-0.1c0,0,0-0.1,0-0.1c-0.2,0-0.3,0.1-0.3,0.1
		c-0.3,0-0.5,0-0.8-0.1c-0.4,0.5-2.2,0.6-2.7,0.3c-0.2,0.1-0.2,0.1-0.1,0.2c0,0-0.1,0-0.1,0c-0.8,0.3-1.2,0.2-2.2,0.5c0,0,0,0,0,0
		c0-0.2,0.4-0.1,0.4-0.3c-0.5,0-0.9,0.1-1.2,0.2c-0.1,0-0.2,0-0.4-0.1c-0.1,0-0.1,0.1-0.1,0.1c-0.4,0-0.8,0-1.2-0.3
		c0.1,0.5-0.7,0.4-0.8,0.8c0.2,0,0.4,0,0.6,0c0.1,0.2,0.4,0.4,0.3,0.6c-0.7,0.2-0.6,0.5-0.9,0.8c-0.9-0.4-1.6,0.3-2.4,0.4
		c-0.9,0.2-1.8-0.1-2.7,0c-0.7,0.1-1,0.5-1.9,0.4c-0.7,0-1.2-0.5-1.9-0.5c-0.4,0.1,0.2,0.5-0.3,0.5c-2.6,0-5.1,0-7.1,0.6
		c3-0.7,5,0.4,7.6-0.3c0.4,0.6,1.2-0.3,1.5,0.5c0.2-0.3-0.4-0.6,0.2-0.5c0.2,0.1,0.3,0.2,0.5,0.2c-0.4,0.6,0.1,0.7,0.3,1.1
		c2.2,0.1,3.9-0.1,5.7-0.1c0.2-0.1,0.1-0.1,0.1-0.2c0.2-0.1,0.3-0.1,0.5-0.2c0,0-0.1,0-0.2,0c0.1,0,0.2,0,0.2,0c0,0-0.1,0-0.1,0
		c0.4,0.1,1.1,0.1,1.8,0c0.2,0.4,0.7,0.7,0.4,1.3c-0.4,0-0.8,0-1.2,0c0-0.1,0-0.1,0.1-0.2c-0.1,0.1-0.2,0.1-0.3,0.2
		c-0.3,0-0.6,0-0.9,0.1c0,0-0.1,0-0.1-0.1c0,0,0,0,0,0.1c-1.2,0.1-2.6,0.3-3.9,0.4c-0.3-0.1-1-0.1-1.2,0c0.2,0,0.4,0,0.6,0
		c-0.7,0.1-1.5,0.1-2.2,0.1c-0.9,0-1.8-0.6-2.4,0.2c1-0.1,1.9,0.4,2.7,0.7c-0.5,0.4-1.8,0.1-2.2,0.4c0.2,0,0,0.2-0.1,0.2
		c-2.1-0.3-3.1,0.7-5.6,0.5c0.1,0.5,1.7-0.2,1.5,0.5c1.3,0,1.7,0.3,3,0.3c-0.2,0-0.4,0-0.4,0.1c0.1,0,0.3,0,0.3,0.1
		c-0.6,0-1,0.1-1.2,0.4c1-0.1,2.2-0.3,3.1,0c-0.2,0.5-2,0-2.1,0.3c0.2,0,0.5,0.1,0.7,0.1c-1.7-0.1-3.4-0.2-5.1-0.2
		c2.3,0.6,4.7,0.7,7.3,0.7c0,0,0,0.1,0,0.1c-0.6,0.3-0.9,0.1-1.3,0.2c0.2,0,0.5,0.3,0.2,0.3c-0.4-0.1-0.4,0-0.9,0
		c0-0.1,0.5-0.3,0.1-0.4c-0.5,0.3-1.4,0.8-1.9,0.3c0,0.2,0.2,0.2,0.2,0.4c-0.3,0-0.6,0-0.8,0.1l0-0.3c-0.8,0.3-1.2,0.4-1.6,0.8
		c-0.5-0.1-2.1-0.2-2.3,0.2c0.7,0.1,1.6-0.4,2.1,0.2c1.8-0.1,3.9,0,5.1-0.3c0.7-0.1,1.8,0.1,2.4,0c0.6-0.1,1.6-0.4,2,0.1
		c-0.4-0.2-0.9,0.2-1.3,0c-0.3,0.2,0.2,0.2-0.1,0.3c-6.6-0.3-13.7,2.1-21,2.1c0,0.5-0.4,0.6-1,0.6c-0.1-0.1-0.6-0.2-0.9-0.1
		c-0.3,0-0.6-0.1-0.7-0.2c-0.3,0.6-1.2,0-1.3,0.5c0.3,0.2,1.3-0.1,1.4,0.4c-0.1,0.2,0.2,0.6-0.1,0.6c-1.6,0.3-2.6-0.6-3.3-0.1
		c0.8,0,1.5,0.7,2.8,0.6c-0.2,0-0.1,0.9,0,0.5c-0.2-0.7,0.6-0.1,0.9-0.6c0.5,0,0.6,0.3,0.7,0.6c-0.4,0.5-1.5,0.4-2,0.8
		c0,0.4,0.5,0.6,1,0.4c2.1,0.7,5.5-0.4,7.7-0.3c0.3,0,0.2,0.3,0.5,0.2c1.2-0.2,3.1-0.8,4.3-0.1c0.8-0.2,1.5-0.1,2.4-0.1
		c0-0.3,0.3-0.4,0.8-0.4c-0.2,0.2,0,0.1,0,0.4c-0.3,0.1-0.7,0.1-0.9,0.3c0.2,0.1,0.7,0,0.6,0.4c-0.9,0-1.2,0.5-2,0.6
		c0.3,0,0.3,0.3,0.7,0.2c0.5-0.6,1.9-0.6,2.2-1.5c0.3,0.1,0.5,0.5,0.3,0.7c1.1,0.5,2.6-0.1,3.6,0.2c0,0.4-0.5,0.4-0.6,0.7
		c0.6,0,0.4,0.1,0.2,0.3c-6.7,0-13.3-0.6-20.2-0.7c2.2,0.4,4.4,0.4,6.5,0.5c2.1,0.1,4.2,0.2,6.1,0.6c0-0.3,0.2-0.4,0.5-0.3
		c3.9,0.4,8.3,0.6,11.8,0.4c1.4,0.9,4.2,0,5.7,1c-0.4,1.3-1.7,1.9-3.2,2.2c0.4,0,0.8,0,1.2,0.1c-2.2,0-4.3,0.1-5.9,0.7
		c2.5-0.7,4.3,0.2,6.5-0.4c0.2,0.4,0.7,0,1.1,0.1c-5.1,0.3-10.7,1.3-15.4,1.3c0.2,0,0.3,0,0.2,0.2c-2.5-0.5-4.7-0.1-7,0
		c-0.3-0.1-0.4-0.4-0.7-0.6c0,0.4,0.2,0.2,0.3,0.7c-1.1-0.4-2.5-0.3-3.6,0l0-0.3c-0.8,0.4-1.9,0.6-2.7,0.3c0.2,0,0.2,0.2,0.2,0.3
		c-0.7,0.1-1.3,0.2-1.3-0.1c-0.4,0.1-0.8,0.1-1.1-0.3c-0.5,0.1,0,0.5-0.2,0.6c-5.1-0.3-12.1,0.2-17.7,0.6c4.6,0,9.2,0,13.9-0.5
		c0,0.3,0.9-0.2,0.7,0.3c2.6-0.5,6,0.3,8.4-0.4c0,0.1,0,0.3,0.2,0.3c-0.1-0.4,0.3-0.4,0.5-0.5c0.3,0.4,1.2-0.1,1.9,0.4
		c0.1-0.3,0.8-0.2,1.3-0.2c0.2,0.1,0.5,0.1,0.7,0.1c0,0,0.1,0,0.1,0c0,0,0,0,0,0c0.5,0,1,0,1.4,0l0,0.4c1.3-0.6,3-0.3,4-0.3
		c1.2-0.9,3.3,0.5,4.2-0.5c-1.6,0.2-3.2-0.1-4.8,0c0-0.1-0.2-0.2,0-0.2c3.4,0.1,6.7-0.3,10.5-0.1c-0.1,0-0.3,0-0.3,0.1
		c0.4,0.1,0.2-0.3,0.7-0.2c0,0.3,0.2,0.2,0,0.4c0.6-0.2,1.5-0.1,2.1,0c0.1-0.3-0.2-0.2-0.3-0.4c0.3,0,0.3-0.2,0.7-0.1
		c0,0.2-0.4,0.2-0.2,0.4c0.6,0.1,0.4-0.4,1.1-0.3c0,0.5,0.7,0.1,1.1,0.4c0.2-0.4,0.3-0.4,0.2-0.6c0.4,0.1,0.6,0.1,0.8-0.1l0,0.3
		c0.3-0.1,1.3-0.6,1.5-0.1c-0.6-0.1-1.1,0.5-1.9,0.1c0.1,0.8,2.6-0.3,3.1,0.4c-0.8,0.1-1.6,0.1-2.3,0.2c-0.5-0.1-1-0.2-1.4,0.1
		c-0.5,0-0.9,0-1.4,0c0,0,0-0.1,0-0.1l-0.5,0c0,0.1,0,0.1,0,0.2c-0.9,0-1.7,0-2.7,0.1c0,0.2,0.2,0.3,0,0.3c-0.2,0-0.8,0.2-0.8-0.1
		c0.1-0.3,0.6,0.2,0.5-0.2c-0.7,0-1.9,0.1-2.3,0.2c0.3,0,0.9,0.2,0.4,0.5c-2.3-0.3-5,0.1-7,0.2c0.1,0,0.2-0.1,0.2-0.1
		c-0.3-0.1-0.3,0.1-0.6,0.1c0-0.2,0-0.3-0.2-0.3c-0.1,0.2,0,0.4,0.2,0.4c-3,0.1-6.1,0-9.5-0.1l0-0.2c-1.2,0.5-2.4-0.1-3.3,0.5
		c-0.4-0.1-0.7-0.2-0.8-0.5c-0.2,0.1-0.8-0.1-0.8,0.1c0.6-0.1,0.9,0.1,1,0.5c-0.7,0.1-2.7,0.1-3.6-0.1c-1.2,0.4-3.2,0.2-4.3,0.6
		c0.8,0.3,2.5-0.5,2.7,0.5c-0.9-0.2-1.5,0.5-2.4,0.2c0,0.4-0.3,0.4-0.8,0.2c-0.6,0.9-2.7,0.1-3.7,0.7c-0.3-0.2-0.8-0.4-1.2-0.5
		c-0.1,0.3,0.5,0.1,0.2,0.4c0.2,0.1,0.8-0.2,0.8,0.1c-2.9,0.3-5,0.6-7.5,0.8c0.1,1-1.4,0.2-1.9,0.5c0.6,0.5-1.1,0.1-1.6,0.2
		c-1.2,0.1-2.5,0.4-3.2,0.6c0.6,0.5,1.3-0.2,2.2,0c0,0.2-0.1,0.4-0.4,0.5c-0.1-0.2-0.9,0-0.8,0.3c0.7-0.2,1.1,0,1.8,0.1
		c-0.8,0.3-1.8,1-2.7,0.4c-0.6,0.5-1.5,0.3-2.7,0.5c0.3,0.6-1,0.4-1.9,0.5c-0.7,0.5,0,0.7-1.1,0.8c0.4,0.2,0.6-0.1,0.8,0.1
		c-0.3,0.5-0.5,1-1.5,1c0-0.1,0.2-0.2,0.3-0.3c-0.7,0.1-1.5,0.4-1.6,0.6c-0.6-0.2-0.5,0.1-0.9,0.1c-0.7,0.1-1.8-0.2-2.2,0.4
		c0.5,0.2,1.2-0.2,1.4,0.4c-0.5,0.3-0.9-0.3-0.9,0.1c0.4,0.3,1.7-0.2,1.8,0.4l-0.8,0c0,0.3,0.7,0.3,0.3,0.6c0.2-0.1,0.7,0.1,0.7-0.1
		c-0.3,0-0.4-0.1-0.4-0.3c0.3,0,1.1,0,1.6,0.1c-0.9,0.6-3.2,0.7-4.3,0.6c-0.1,0.2-0.2,0.4-0.4,0.5c0.6,0,1.3,0,0.5-0.2
		c0.5-0.1,0.6,0.2,0.8,0.4c-1,0.5-0.8-0.1-1.6,0c0.5,0.1,0.7,0.2,0.3,0.5C5.1,52,6.7,52.1,7.5,52c0.5,0.8,2.8-0.3,3,0.9
		c0.5,0,0.2-0.6,0.8-0.5c0.4,0.1,0.8,0.4,1.2,0.5c0.4-0.3,1.2-0.2,1.4,0.2c-0.2,0-0.1,0.2-0.3,0.2c-0.5-0.3-1.9-0.2-2.4,0.1
		c1,0,2.2,0.2,3.1-0.1c-0.2,0-0.4,0-0.4-0.1c0.4,0,0.4-0.2,0.8-0.2c0.1,0.2-0.4,0.3,0.1,0.3c0.2-0.1,0.3-0.3,0.5-0.3
		c0.9,0.3,2.3,0.4,3.1,0.1c1.3,0.8,3.8-0.4,4.1,1c1.1-0.3,2.2-0.3,3.3,0.1c0.3,0,0.1-0.3,0.4-0.3c1.1,0.6,2.7-0.4,4.1-0.1
		c-0.1,0.4-1.4,0-0.9,0.5c1.9-0.5,3.5,0.3,5,0.2c0,0.2-0.6,0.1-0.5,0.4c0.4,0,1.3,0.1,1.9-0.1c0.1,0.1,0.2,0.2,0.2,0.4
		c1-0.3,1.9,0.1,3,0.3c0.2-0.2-0.4-0.4,0-0.4l0.8,0c-0.2,0.1-0.2,0.4,0.2,0.4c1.1-0.2,2.6,0,3.6-0.5c-0.4,0.4,0.4,0.1,0.4,0.1
		c0,0,0,0.2,0,0.2c2.1,0.4,6.2-0.8,7.1-0.2c-0.2-0.2,0.6-0.7,1.1-0.4c0.1,0.3-0.3,0.2-0.2,0.4c3.3-0.3,6.8-0.3,10.6-0.5
		c-0.1,0-0.3,0-0.3-0.1c1.8,0,2.6,0.3,4,0c1.3,0.1,3.9-0.2,4.6-0.1c-0.1-0.1-0.8-0.2-0.4-0.3c1.5,0.6,2.7,0.5,4.7,0.4
		c0.2,0.5,1.6,0.4,1.6-0.1c-0.4,0-0.7,0.1-0.8,0.3c-0.2-0.1-0.7,0-0.6-0.4c0.7,0,2.8-0.3,1.8,0.2c2.1-0.5,2.7,0.2,4.6-0.2
		c0.4,1,2.9,0,2.7,0.6c0.5-0.3,1.2-0.3,1.8,0.1c-1.1,0.3-1.9,0.2-2.7,0.5c0.4-0.1,0.8-0.1,1,0.2c0.6-0.4,1.2-0.4,1.7-0.1
		c-0.1-0.5,0.5-0.1,0.7,0c0.1-0.3-0.4-0.1-0.3-0.4c0.9-0.2,1.9-0.1,2.8,0.2c-0.2,0-0.4,0.1-0.5,0.2c0.7-0.2,1.6,0.3,1.7-0.3
		c-0.3,0-0.9,0.2-0.9-0.1c1-0.2,1.7-0.1,2.3,0.1c-0.2,0-1,0-0.5,0.1c0.6,0.1,0.8-0.2,1.2-0.3c1.4,0.7,2.3,0.4,3.8,0.5
		c0-0.1,0.1-0.1,0.1-0.1c0.3,0,0.6,0.1,0.8,0.1c0.3,0,0.5,0,0.8,0c0,0.2-0.5,0.1-0.4,0.4c0.5,0,1.7-0.2,2.6,0.2
		c0.3-0.2,1.9-0.6,2.1,0.1c-0.9,0.1-1.7,0.3-2.3,0.1c-0.1,0.4-2.8,0-2.5,0.6c-0.1-0.1-0.2-0.3-0.6-0.3c-0.2,0.2-0.6,0.3-0.9,0.7
		c0-0.7-0.8,0.4-1-0.3c-0.4-0.1-0.3,0.3-0.5,0.3c-0.4-0.1-0.5-0.3-1-0.4c-3,1-6.5,0.2-9.5,0.6c0.7,0.1,1.5,0,1.9,0.3
		c-0.2,0-0.7-0.3-0.8,0c0.2,0.1,0.7,0,0.8,0.2c-0.7,0.2-1.2-0.3-1.5-0.1c0.8,0,0,0.4,0,0.4c0.3,0.2,0.7-0.1,1.1,0.2
		c0-0.2-0.2-0.2-0.2-0.4c0.3,0,0.3,0.3,0.6,0.3c1.8-1.2,4.7-0.3,6.9-1c0.1,0.5,0.6,0.2,0.5,0c0.6,0.1,0.7,0.3,1,0.6
		c0.5-0.7,2.2-0.1,2.9-0.6c0.9,0.6,2.7-0.2,3.6-0.2c-0.1,0-0.2-0.1-0.1-0.2c0.5-0.1,0.7-0.2,1.1,0c-0.3,0.3-0.3-0.1-0.7-0.1
		c1,0.7,2.5,0,3.9,0.2c0.2-0.2,0.5-0.2,0.8-0.4c0.3,0.3,1,0.1,1.6,0.1c0-0.1,0.1-0.2,0.2-0.3c0.3,0,0.5,0.1,0.8,0.1
		c0.2,0.2,0.7,0.3,0.8,0.1c-0.1,0-0.2-0.1-0.3-0.1c2.3,0.2,4.6,0.4,6.9,0.6c0.3,0,0,0.5,0.5,0.4c0.5,0.1,0.4-0.4,0.9-0.3
		c0.3,0.1,0.5,0.3,0.7,0.5c1.7,0.2,3.3,0.3,5,0.4c0,0.3-1,0.1-0.7,0.3c0.5,0.1,1-0.1,0.9-0.3c0.8,0,1.6,0,2.4,0l0,0c0,0,0.1,0,0.1,0
		c1.8,0,3.6,0,5.3,0c4.1,0,8.3,0.2,12.2,0.3c3.1,0.1,6.1-0.2,8.8,0.2c3.7-0.2,6.9,0,10.4,0c2.4,0.1,5.1,0.4,7.2,0.2c0,0,0,0,0,0.1
		c0.8,0.1,1.3-0.3,1.8,0.3c0.2-0.1,0.3-0.3,0.5-0.4c0.3,0.1,0.7,0.2,1,0.2c1.7,0.1,3.5-0.3,5.2-0.2c1.9,0.1,3.8,0.2,5.7,0.3
		c0.2,0,0.4,0,0.6,0c-0.1,0.2-0.4,0.2-0.4,0.5c0.3,0.2,0.9,0.1,1.1,0.4c-1,0.3-1.6,0.2-2.2-0.2c0.2-0.1,0.7,0.1,0.7-0.1
		c-0.7,0.1,0.5-0.4-0.3-0.3c-0.4,0.4-0.8,0.4-1.3,0.6c0.3-0.4-0.6,0.3-0.8-0.3c-0.2,0.1-0.3,0.3-0.5,0.4c-1-0.6-3-0.5-4.1-0.7
		c0.2,0.1,0.6,0.1,0.5,0.4c-0.1,0-0.2,0.1-0.3,0.1c-0.4-0.5-1.3,0.1-1.4-0.5c-0.7,0-0.6,0.1-1-0.1c-0.1,0.2,0.1,0.5-0.6,0.4
		c0-0.2,0.3-0.2,0.4-0.4c-1,0-2.9,0.4-3.5-0.1c-1.7,1.6-4.4-0.6-5.7,0.6c0-0.1-0.2-0.1-0.3-0.2c0.3,0.1,0.5-0.1,0.4-0.3
		c-0.7,0-0.6,0-1.6-0.2c0.2,0.6,1.2,0.5,1.6,0.9c-0.3,0.2-1,0.1-1.4,0.1c0.2,0.3,1.4,0.3,1.7,0.3c0,0,0.1-0.3,0.3-0.3
		c0.2,0,0.3,0.3,0.5,0.3c0.9,0.1,2.1-0.5,2.6,0.2c-0.5-0.1-0.7,0.1-0.8,0.3c2.2-0.3,3.5,0,6-0.1c0,0.1-0.1,0.1-0.1,0.2
		c0.8-0.2,1.8,0.1,2.7-0.3c0,0.1-0.2,0.2-0.3,0.3c0.5-0.1,1-0.3,1.4-0.4c-0.3,0.3,0.4,0.3,0.5,0.6c0-0.2,0.1-0.3,0.4-0.3
		c0.3,0.1-0.2,0.3,0.1,0.3c0.7-0.1,1.4-0.2,2-0.4c0,0.2-0.7,0.4-0.3,0.5c0.8-0.5,3,0.2,3.8,0.3c-0.4-0.1,0.4-0.3,0.5-0.1
		c0.2-0.3-0.5-0.3-0.1-0.4c0.2,0.4,1,0.1,1.2,0.3c0.2,0.4-0.4,0.1-0.4,0.3c0.5,0.2,1.1,0.4,1.8,0.5c-1.2,0.5-3.6-0.4-5.4,0.4
		c0.1,0.2,0.6-0.1,0.8-0.1c0.1,0.7,0.5,0.1,0.8,0.3c-0.3,0.8-1.4-0.1-2,0.2c0.2,0,0.3,0,0.3,0.2c-0.1,0-0.2,0.1-0.3,0.1
		c-0.8-0.1-2.3-0.4-2.3,0.1c-0.6,0-1.1-0.7-1.7-0.5c0.7,0.2,1.3,0.4,1.6,0.9c0,0.1-0.9,0.1-0.5,0.2c0.9-0.3,1.3-0.3,2.2-0.3
		c-0.1-0.2-0.6,0-0.5-0.3c0.4,0,1-0.1,1,0.2c-0.4,0.2,0.2,0.5,0.3,0.3c-0.4-0.1,0.1-0.4,0.3-0.4c0,0.2,0.3,0.1,0.5,0.1
		c0,0.2,0,0.3,0.1,0.4c0.4,0,0.6-0.1,0.9-0.2c1.7,0.6,4-0.5,5.6-0.2c0.3-0.3,1,0,0.9-0.3c0.1,0.1,0.9,0.3,0.9,0.1
		c-0.1-0.2-0.6,0-0.7-0.2c0-0.1,0.1-0.2,0.3-0.2c0.3,0.3,0.4,0.1,0.8,0l0.4,0.3c0.8-0.2,1.2-0.1,2-0.2c0,0.1-0.1,0.2-0.1,0.3
		c0.3-0.1,0.7-0.1,0.9,0.1c-0.4,0.1-0.7,0.3-0.9,0.5c0.6-0.2,1.5-0.1,1.7-0.5c-0.2-0.1-0.5,0.3-0.7,0c0.4-0.1,0.8-0.2,1-0.4
		c0,0.2,0.1,0.2,0.4,0.2c-0.3,0.3,0.2,0.6,0.4,0.7c0.1-0.4-0.3-0.4-0.3-0.7c0.6,0.1,0.1-0.2,0.4-0.2c0.7,0,0.7,0.4,1.3,0.4
		c-0.2,0.3-0.7,0.4-0.9,0.6c0.7,0.1,0.8-0.4,1.4-0.4c0,0.3-0.2,0.3,0.1,0.4c0.8-0.6,2.5-0.4,3.5-0.5c-0.2-0.3-0.4,0.2-0.5-0.1
		c0-0.1,0.3-0.1,0.4-0.2c0.1,0.3,0.5,0.2,0.4,0.6c0.7-0.4,1.5,0,2.5-0.2c0.1,0.2,0.3,0.8,0.7,0.4c-0.2,0-0.3,0-0.3-0.2
		c0.6-0.1,0.9-0.1,1.8-0.1c0.1,0.7,1.2,0.7,1.7,1.1c0.3-0.1-0.2-0.3,0.1-0.3c1.3,0.5,2.2,0.5,3.9,0.8c-0.9,0.2,0.8,0.2,0.3,0.4
		c0.5-0.2,1.4-0.3,1.9-0.2c-0.1-0.1-0.1-0.4,0.1-0.4c0.3,0.2,0,0.4,0.5,0.2c-0.1,0.4,0,0.6,0.4,0.6c0.2-0.1,0-0.4,0.3-0.4
		c0.4,0.2,0.5,0.1,0.8,0.2c-0.2,0.1-0.3,0.2-0.4,0.3c0.4-0.1,0.2,0.2,0.1,0.3c0.4,0.1,0.8,0.2,1,0.4c0-0.5-0.3-0.8,0-1.1
		c-0.4-0.1-0.4-0.5-0.5-0.7c1.9,0,4.5,0.4,6.2,1.3c-0.3,0.3-0.3,0.6,0.1,0.9c0.8-1.9,3.3,0.4,5-0.4c0.2-0.6-0.1-0.6-0.1-1.2
		c1,0.1,1.3-0.4,1.7-0.8c0.8-0.2,1.1-0.1,2-0.2c0,0.1,0,0.2,0.3,0.2c0.4-0.1-0.3-0.2-0.1-0.5c0.9,0,1.1-1,2-0.8
		c-0.3-0.6,0-0.9,0.2-1.1c0,0.1,0.4,0.1,0.4,0c-0.2,0,0-0.1,0.3-0.1c-0.3,0.2,0.6,0.8,0.8,0.3c-0.5-0.2-1.3-0.4-0.9-1
		c-0.5,0-0.7-0.1-0.8-0.3c0.2-0.1,0.3-0.3,0.5-0.4c-0.1-0.2-0.4-0.3-0.5-0.5c0.2-0.1,0.4-0.2,0.7-0.2c0.4,0,0.8,0,1.3,0
		c0.3,0.1,0.6,0.2,0.8,0.4c0.5-0.1,1.1-1,1.6-0.3c-0.2,0-0.6,0.2-0.8,0.5c0.5,0,1.2-0.6,1.6-0.1c-1.1,0.6-2.9,1-4.4,0.7
		c1,0.6,2.8,0.2,4.1-0.2c0.6,0.3,1.8,0.2,2.5-0.1c0.3,0.1,0.3,0.4,0.7,0.4c1,0,3.3-0.9,3.2,0.3c0.5,0.2,0.1-0.3,0.4-0.3
		c0.2,0.1,0.5,0.2,0.4,0.5c-1.3,0.9-3.2,1.3-4.6,2.1c0.4,0.3,0.9,0.4,0.9,1c2.9,0.1,4.1-2.3,7.1-2.2c-0.4-1,0.8-1.4,0.2-2.3
		c0.2,0,0.4,0,0.5-0.1c0-0.2-0.1-0.3-0.1-0.5c1.5,0.3,3.4,0.4,4.9,0c3.3,0.7,6.5-0.3,9.9-0.1c1.1,0.1,2.2,0.6,3.3,0.1
		c1.2,0.5,2.6,0.2,4,0.2c1.4,0,2.9,0.2,4.4,0.3c0.5,0,1.1,0,1.7,0c0.1,0.1,0.2,0.2,0,0.3c1.1,0.3,2.8,1.2,3.5,0.1
		c-0.2-0.1-0.5-0.2-0.5-0.4c0.6,0.1,1.2,0.2,1.7,0.6c0.8,2.3,2.1-1.2,3.8-0.8c0.9,0.4,0.8,1.1,1.3,1.9c0.8,0.3,1.6,0.1,2.3-0.2
		c0.9,0.2,1.6,1.2,2.9,1.1c0.6,0,1.1-0.4,1.7-0.5c1.4-0.1,2.6,0.2,3.9-0.1c1.2-0.3,2.3-0.9,3.5-1.1c0.9-0.1,1.2-0.3,1.8-0.5
		c1.8-0.5,3.3-0.4,4-1.5c1.2-0.8,2.8-1.3,3.8-2.1c0.2-0.1,0.5-0.1,0.6-0.1c2.7-1.9,4.2-4.6,7.4-6.1c0.1-0.2,0.2-0.5,0.2-0.8
		c0.7,0,1.4-0.4,2.1-0.4c1.6,0,3.1,0.5,4.7,0.2c1.4-0.2,2.8-0.9,4.3-1c1.1-0.1,1.5-0.3,2.2-0.5c2.2-0.5,3.9-0.3,4.9-1.5
		c1.5-0.9,3.4-1.4,4.7-2.2c0.2-0.1,0.7-0.1,0.7-0.1c3.3-2,5.2-5.2,9.1-6.8c0.3-0.7,0.5-1.8,1.1-2.7c0.3-0.4,0.9-0.7,1.1-1.1
		c0.7-1.5-0.1-3.4,1.3-4.6C356.7,29.4,356.4,29.3,356.3,29.1z M49.8,38.2c0-0.1,0.1-0.1,0.2-0.1c0.1,0.4,0.6,0,0.9,0.2
		C50.6,38.3,50.2,38.3,49.8,38.2z M52,38.1c-0.2,0.2-0.6,0.3-1,0.2c0.4-0.4,1.1-0.2,1.7-0.4c0,0.1,0.1,0.2,0.2,0.3
		c-0.1,0-0.2,0-0.3,0.1C52.4,38.2,52.1,38.2,52,38.1z M68.9,37.6c-0.1-0.4,0.6-0.1,0.8-0.1C69.7,37.8,69.1,37.8,68.9,37.6z M6.2,51
		c0,0.1,0,0.2,0.1,0.2c-0.1,0.2-0.8,0.1-0.9,0c0-0.2,0.4-0.1,0.3-0.4c0.4-0.1,0.5,0.2,0.9,0.1C6.5,51,6.3,50.9,6.2,51z M11.2,47.7
		c0-0.1,0-0.2-0.1-0.2c0.1-0.2,0.5-0.2,0.9-0.2C11.9,47.6,11.5,47.6,11.2,47.7z M17.9,44.3c0.1-0.2,1.3-0.6,1.2,0
		C18.6,44.1,18.6,44.2,17.9,44.3z M33.8,54c-0.5-0.1,1.1-0.5,0.9,0C34.5,54,34,53.9,33.8,54z M37.3,54.4c-0.1-0.2,0.7-0.2,0.3-0.3
		c0.1-0.1,1.3-0.3,1.2,0.1C38.1,54.1,37.8,54.3,37.3,54.4z M98.3,56.7c0.3-0.3,1,0,1.3-0.1C99.4,56.9,98.5,56.7,98.3,56.7z
		 M179.3,60.6c0.2-0.2,0.7-0.3,0.9-0.1C180.2,60.7,179.6,60.5,179.3,60.6z M73.9,18.6c0.3,0,0.7,0.1,1,0.2c0,0-0.1,0.1-0.1,0.1
		c-0.5-0.1-1.2-0.1-1.9-0.1C73.2,18.7,73.5,18.6,73.9,18.6z M79.2,37c0,0,0.1,0,0.1,0.1c0,0,0,0,0.1,0c0,0.1,0.1,0.2,0.1,0.3
		c-0.4,0-0.8,0-1.2,0.1C78.5,37.2,78.8,37.1,79.2,37z M75.5,14.6c0-0.1,0-0.2-0.1-0.2C75.7,13.8,76.4,14.7,75.5,14.6z M78.2,37.1
		c-0.8,0.7-2.9,0.4-4,0.5C75.1,36.8,76.9,37.4,78.2,37.1z M88.2,10.3C88.2,10.3,88.2,10.4,88.2,10.3C88.2,10.4,88.2,10.4,88.2,10.3
		C88.2,10.4,88.2,10.3,88.2,10.3z M69.5,15.1c0-1,1.7-0.3,1.8-1.2c0.6,0.1,1,0.2,1.3-0.3c1.3,0.4,1.6-0.2,2.6,0.2
		c-0.3,0.6,0.2,0.4,0.1,1.1c-1.2,0-2.8,0.5-3.6,0c-0.2,0,0,0.4-0.1,0.7c-0.1,0-0.1,0.1-0.2,0.1C70.9,15.3,70.3,15.1,69.5,15.1z
		 M71.6,18.8c-0.3,0-0.6,0-0.8,0c0.2-0.1,0.4-0.1,0.6-0.1C71.5,18.7,71.5,18.7,71.6,18.8z M69.2,18.7c0.2,0,0.3,0.1,0.5,0.2
		c-0.9,0-1.8,0-2.4-0.1C68,18.6,68.6,18.6,69.2,18.7z M64.6,18.9c0.2,0,0.3,0,0.5,0c-0.5,0.1-0.9,0.1-1.3-0.2
		C64,18.8,64.3,18.9,64.6,18.9z M63.3,19.1c-0.2,0.4-0.9,0.2-1.1,0.2C62.3,19,63.1,19,63.3,19.1z M64.4,32c-1,0.1-2,0.1-3.1,0.1
		c0.7-0.1,1.4-0.2,2.1-0.3c3.8,0.5,7.9,0.2,11.9-0.1c-0.2,0.6-0.9,1-1.9,1C70.7,32.7,66.2,32.3,64.4,32z M82.6,54.1
		C82.6,54.1,82.6,54.1,82.6,54.1C82.8,54,83,54,83,54c0.5-0.1,0.4-0.2,1-0.1c0,0,0,0,0,0C83.6,54.1,83,54.3,82.6,54.1z M103.4,55.7
		c0.3,0,0.7,0.2,0.9-0.1C104.7,55.7,103.3,56.3,103.4,55.7z M105.3,56.6c-0.3,0.1-0.9,0-1.3,0c0-0.4,1-0.1,1.2-0.4
		C105.6,56.2,105,56.7,105.3,56.6z M184,63.1c0.1-0.2,0.6-0.3,0.8-0.2C184.7,63,184.4,63.1,184,63.1z M185,63.8l-0.5,0
		C184.3,63.4,185.1,63.4,185,63.8z M187.2,63.3c-0.7,0-1.2-0.4-1.7-0.2c-0.1-0.1-0.1-0.4-0.5-0.3c0.7-0.5,1.9,0,2.6-0.1
		C187.3,62.9,187.2,63.1,187.2,63.3z M213.5,65.4c-0.3,0-0.1-0.4-0.5-0.3c0.3-0.4,0.7,0.1,1.2,0.1C214.2,65.5,213.4,65.1,213.5,65.4
		z M220.2,64.6c-0.7,0.3-1.1,0.2-1.8,0.3c-0.2-0.1-0.2-0.4,0-0.5c-0.4-0.1-0.9-0.2-1.2-0.4c0.8-0.1,1.5,0.3,2.2-0.2
		c0.5,0,0.3,0.5,0.8,0.4C220.3,64.3,219.8,64.5,220.2,64.6z M237.1,60.1c0.3,0,0.6-0.1,0.9-0.1C237.7,60.1,237.4,60.1,237.1,60.1z
		 M279.3,60.7c0.6,0,1.3,0,1.9,0C280.4,60.9,279.7,61.1,279.3,60.7z"/>
	<path class="st0" d="M101.4,57.5c0.3,0,0.6,0,0.7-0.2C101.9,57.1,101.5,57.3,101.4,57.5z"/>
	<path class="st0" d="M62.3,36.5c0.4,0,0.7,0,0.9-0.2C63,36.2,62.4,36.2,62.3,36.5z"/>
	<path class="st0" d="M60.9,38.3c0.4-0.2,1-0.1,1.3-0.3C61.8,38,60.6,37.9,60.9,38.3z"/>
	<path class="st0" d="M61.7,36.5c-0.5,0.1-1.1,0-1.5,0.2C60.8,36.7,61.5,36.9,61.7,36.5z"/>
	<path class="st0" d="M58,36.8c0.5,0.1,1.4,0.4,2,0C59.4,37,58.5,36.5,58,36.8z"/>
	<path class="st0" d="M49.6,56.4c0.3,0.1,0.7,0,0.8-0.2C50.3,56.2,49.7,56.2,49.6,56.4z"/>
	<path class="st0" d="M47.1,55.7C45.8,55.6,46.1,56.1,47.1,55.7L47.1,55.7z"/>
	<path class="st0" d="M72.9,56.7c0.1,0,0.1,0,0.2,0c0-0.3-0.6-0.2-0.7-0.5c-0.9,0.8-2.9,0.2-4,0.7c0.5,0,1.5,0.2,1.9-0.2
		c0.7,0.2,1.1,0.1,1.7,0c0,0-0.1,0-0.1,0.1c0.5,0.2,1.2-0.1,1.5,0.3c0.1-0.2,0.4-0.2,0.6-0.4C73.6,56.8,73.2,56.8,72.9,56.7z"/>
	<path class="st0" d="M59.9,38.1c1.1,0-0.5-0.2-0.6,0.1c0.1,0.1,0.6,0.3,0.6,0C59.9,38.2,59.8,38.1,59.9,38.1z"/>
	<path class="st0" d="M54.8,38.7c0,0,0.1-0.1,0.1-0.1C54.8,38.6,54.7,38.7,54.8,38.7z"/>
	<polygon class="st0" points="55,38.6 55,38.6 55,38.6 	"/>
	<path class="st0" d="M0,48.2c0.5,0,0.5-0.1,0.9,0C1,47.8,0,48,0,48.2z"/>
	<path class="st0" d="M1.5,48.1c1,0,2.1,0.1,2.6-0.4C2.5,47.8,2.6,47.6,1.5,48.1z"/>
	<path class="st0" d="M5.3,50.1c-0.6,0.2-1-0.4-1.2-0.2C4.3,50.2,5,50.4,5.3,50.1z"/>
	<path class="st0" d="M6.1,49.9c0,0.2-0.5,0.1-0.5,0.3c0.3,0,0.5,0,0.7,0.1C6.3,50.2,6.3,49.9,6.1,49.9z"/>
	<path class="st0" d="M7.8,47.6c-0.9,0-1.7,0.3-2.2-0.2C5.9,48.2,7.3,47.9,7.8,47.6z"/>
	<path class="st0" d="M10.8,43.4c-0.4-0.1-1.3-0.1-1.3,0.3C9.9,43.4,10.5,43.8,10.8,43.4z"/>
	<path class="st0" d="M9.9,46.3c0.1,0,0.2,0.1,0.1,0.2c0.2,0,0.4,0,0.5-0.1c0-0.2-0.4-0.6-0.6-0.3C10.3,46.2,10,46.2,9.9,46.3z"/>
	<path class="st0" d="M12.6,42.7c0-0.1,0-0.1,0.1-0.1c0.1,0,0.2,0,0.1-0.1c0-0.2-1.2-0.1-0.8,0C12.5,42.3,12.4,42.6,12.6,42.7z"/>
	<path class="st0" d="M14.9,32c-0.4,0-1.6-0.1-1.3,0.1C14.3,32,14.6,32.3,14.9,32z"/>
	<path class="st0" d="M15.9,36.6l-0.5,0C15.3,37,16,37,15.9,36.6z"/>
	<path class="st0" d="M19.5,36.3c-0.6,0.2-1.2-0.5-1.5,0C18.3,36.4,19.3,36.5,19.5,36.3z"/>
	<path class="st0" d="M22.1,53.6c-0.4,0-0.4-0.2-0.8-0.2C21.2,53.8,22.1,53.9,22.1,53.6z"/>
	<path class="st0" d="M25.2,40.1c0.4-0.1,0.9-0.1,1.2-0.2C26.1,39.8,25.3,39.8,25.2,40.1z"/>
	<path class="st0" d="M27.2,40c0.2,0,1.5,0,1.7-0.3C28.4,40,27.3,39.7,27.2,40z"/>
	<path class="st0" d="M30.7,54.1c0.6-0.2,0.4,0.3,0.8,0.3C31.7,54,30.8,53.9,30.7,54.1z"/>
	<path class="st0" d="M31.9,40.4c-0.5,0.1-1.2,0-1.3,0.4c0.3-0.1,0.8,0.3,0.9,0.1C31,40.6,32,40.6,31.9,40.4z"/>
	<path class="st0" d="M32.6,40.4c-0.2,0-0.3,0-0.4-0.1c0,0.3,0.4,0.2,0.7,0.3c0.1-0.2,0.4-0.2,0.1-0.4c0.4,0.2,1.1,0.2,1.2-0.2
		c-0.5,0.4-1-0.3-1.3,0.1c0,0,0.1,0.1,0.1,0.1C32.7,40.2,32.7,40.4,32.6,40.4z"/>
	<path class="st0" d="M35.3,23c0-0.1-0.7-0.4-0.7,0C35,22.8,35.2,23.3,35.3,23z"/>
	<path class="st0" d="M40.3,26.4c0.3-0.1,0.9,0.1,0.9-0.1C40.9,26,40.5,26.2,40.3,26.4z"/>
	<path class="st0" d="M42,8.7l0.4,0c0-0.2-0.2-0.2-0.2-0.4c-0.2,0-0.4,0.1-0.5,0.2C42.1,8.5,42.2,8.5,42,8.7z"/>
	<path class="st0" d="M54.5,36c-2,0.1-3.8-0.2-5.6,0.2C50.7,35.8,52.6,37.2,54.5,36z"/>
	<path class="st0" d="M47.8,18.6l0.7,0C48.5,18.1,47.8,18.2,47.8,18.6z"/>
	<path class="st0" d="M49.4,14c-0.1-0.1-0.9-0.2-0.9,0C48.9,14,49.3,14.4,49.4,14z"/>
	<path class="st0" d="M51.3,18.1c-0.4,0-0.7,0.1-0.9,0.3C50.7,18.2,51.4,18.5,51.3,18.1z"/>
	<path class="st0" d="M52,17c0.1-0.3,0.3,0.1,0.7,0C52.9,16.6,51.4,16.8,52,17z"/>
	<path class="st0" d="M52.9,17c0.6,0,0.7-0.2,1.1-0.1C54.1,16.5,52.9,16.7,52.9,17z"/>
	<path class="st0" d="M55.5,35.8c0,0.4-1,0.1-0.9,0.6c0.3-0.2,1.2,0.1,1.6-0.2C56.1,35.9,55.8,35.8,55.5,35.8z"/>
	<path class="st0" d="M57.3,31.3c-0.3,0-1.4,0-0.9,0.3c0.1-0.2,0.5,0.1,0.8,0.1l0-0.2C57.2,31.4,57.3,31.4,57.3,31.3z"/>
	<path class="st0" d="M58.8,32c0.4-0.1,0.6-0.3,0.9-0.5C59.1,31.5,58.9,31.7,58.8,32z"/>
	<path class="st0" d="M59.8,16.3c-0.3-0.1-0.4,0-0.7-0.3c0,0.1-0.2,0.1-0.3,0.2C59,16.4,59.6,16.6,59.8,16.3z"/>
	<path class="st0" d="M60,7.5c-0.3,0.1-1-0.1-0.9,0.3C59.4,7.7,60,7.8,60,7.5z"/>
	<path class="st0" d="M66.9,57.1c0.3,0,0.6-0.1,0.7-0.2c-0.4,0,0.2-0.2,0.1-0.3C67.3,56.6,67,56.8,66.9,57.1z"/>
	<path class="st0" d="M69.5,58.8c0,0.1,0,0.2-0.1,0.3c0.6,0.1,1.5,0.2,1.9-0.3C70.3,58.9,70.2,59.1,69.5,58.8z"/>
	<path class="st0" d="M70,55.2c0.8-0.1,1.3,0,1.6-0.3C71,55,70.2,54.9,70,55.2z"/>
	<path class="st0" d="M72.6,58.7c0-0.1-0.4-0.3-0.4-0.1c0.2,0.4-0.8-0.3-0.7,0.3c0.4-0.1,0.4,0.2,0.8,0.1c0-0.1,0-0.2,0.1-0.2
		C73.3,58.9,74.5,58.5,72.6,58.7z"/>
	<path class="st0" d="M69.1,12.9c0.3,0,0.6-0.1,0.8-0.2C69.6,12.5,69.2,12.7,69.1,12.9z"/>
	<path class="st0" d="M74.4,58.8c0.4,0,0.8,0,0.9-0.3C74.9,58.6,74.4,58.5,74.4,58.8z"/>
	<path class="st0" d="M75.6,58.9c0.5,0.1,0.6-0.1,0.7-0.3C75.9,58.5,75.5,58.5,75.6,58.9z"/>
	<path class="st0" d="M78,58.2c0.4,0.8-1.5-0.1-1.5,0.4c0.8,0.1,0.8,0.1,1.6,0.2C78.4,58.7,78.2,58.3,78,58.2z"/>
	<path class="st0" d="M82.6,57.5c0.3,0,0.3,0.3,0.6,0.4c0-0.2,0.2-0.3,0.1-0.6C83,57.3,82.6,57.3,82.6,57.5z"/>
	<path class="st0" d="M81.8,8.6c0.4,0,0.4-0.4,0.2-0.5l-0.4,0C81.6,8.3,81.9,8.3,81.8,8.6z"/>
	<path class="st0" d="M84.8,55.7c0.5,0,0.5-0.2,0.5-0.4C84.9,55.2,85,55.5,84.8,55.7z"/>
	<path class="st0" d="M87.3,55.2c-0.3,0.1-0.8,0-0.8,0.4C86.9,55.5,87.3,55.5,87.3,55.2z"/>
	<path class="st0" d="M90.9,56c0.4,0.1,1.1,0.3,1.5,0C91.8,56.2,91.2,55.8,90.9,56z"/>
	<path class="st0" d="M114.9,60c0.3-0.1,1,0.1,1.1-0.2C115.6,59.8,115,59.7,114.9,60z"/>
	<path class="st0" d="M118,60c0.3,0.3,0.5,0.1,0.8-0.1C118.6,59.5,118.4,59.9,118,60z"/>
	<path class="st0" d="M119.1,60l0,0.3c0.2,0,0.3,0.1,0.5,0.1C119.7,60.1,119.3,60.1,119.1,60z"/>
	<path class="st0" d="M121.9,59.6c0.4-0.1,0.4,0.2,0.8,0.1l0-0.3C122.3,59.6,121.9,59.1,121.9,59.6z"/>
	<path class="st0" d="M124.3,59.7c0.1,0,0.2,0.1,0,0.1c-0.1,0-0.3,0-0.3,0.1c0.4,0,0.9,0,0.8-0.3C124.6,59.6,124.3,59.6,124.3,59.7z
		"/>
	<path class="st0" d="M130.5,59.8c-0.5,0.1-0.9,0.3-1.3,0.5C129.8,60.2,130.3,60.1,130.5,59.8z"/>
	<path class="st0" d="M142.7,59.2c0.4,0.3-0.4,0.2-0.4-0.1l0,0.4c0.5,0,0.8-0.1,1-0.2C143.1,59.5,142.9,58.9,142.7,59.2z"/>
	<path class="st0" d="M150.3,59.1c-0.4,0-0.8,0-0.9,0.2C149.9,59.5,150,59.2,150.3,59.1z"/>
	<path class="st0" d="M160.4,60.3c-0.4,0.3-0.9-0.2-1.2,0.1C159.6,60.5,160.4,60.9,160.4,60.3z"/>
	<path class="st0" d="M159.8,59.3c-0.2,0-0.1-0.3-0.4-0.3c0.2,0.3-0.4,0.1-0.2,0.4C159.6,59.4,159.7,59.7,159.8,59.3z"/>
	<path class="st0" d="M160.4,61.3c-0.2-0.1-0.6,0-0.8-0.2C159.6,61.5,160.1,61.5,160.4,61.3z"/>
	<path class="st0" d="M161.5,59.4c0.4-0.1,0.2,0.3,0.5,0.3c-0.4-0.5,1.3-0.4,0.8-0.1c0.3,0,0.6-0.1,0.6-0.3
		C163.2,59,161.9,59.1,161.5,59.4z"/>
	<path class="st0" d="M169.7,59.3c-0.4,0.3-1.1-0.2-1.2,0.3C168.9,59.4,169.7,59.6,169.7,59.3z"/>
	<path class="st0" d="M169,61.6l0,0.3l0.8,0C169.9,61.5,169.1,61.8,169,61.6z"/>
	<path class="st0" d="M178.2,63.7c-0.2,0.2-0.9,0-1,0.2C177.5,64,178.1,64.1,178.2,63.7z"/>
	<path class="st0" d="M205.8,64.5c0.3-0.1,1.1,0.2,1.1-0.2C206.4,64.6,205.9,63.8,205.8,64.5z"/>
	<path class="st0" d="M215.5,66.4c0,0.6,1,0.2,1.1-0.1C216,66.4,215.9,66.6,215.5,66.4z"/>
	<path class="st0" d="M230.3,66.4c-0.1,0.5-0.9-0.2-0.8,0.4c0.4,0,0.5,0.8,0.9,0.4C229.9,67,230.6,66.6,230.3,66.4z"/>
	<path class="st0" d="M234.2,64.8c-1.2,0.1-0.1,0.4-0.8,0.6c0.5,0.2,0.3-0.1,0.8-0.1L234.2,64.8z"/>
	<path class="st0" d="M236.2,64.9c-1,0.1-1.3-1.2-2-0.7c0.9,0.1,0.4,0.8,0.5,1c0.3-0.1,0.8-0.2,1.1-0.3c0,0.1,0.2,0.1,0.1,0.3
		c-0.9,0.1-1.1,0.7-1.9,0.9c0.6,0,0.6,0.2,0.9-0.1c0.1,0.3,0.3,0.5,0.8,0.4c0.4-0.2,0.6-0.4,0.9-0.7
		C236.4,65.6,236.2,65.4,236.2,64.9z"/>
	<path class="st0" d="M236.6,63.7c-0.9,0,0-0.7-0.9-0.6c-0.1,0.4,0.4,0.5,0.2,0.9C236.2,63.9,236.3,63.8,236.6,63.7z"/>
	<path class="st0" d="M255.3,67.6c0,0.1,0.4,0.1,0.4,0c-0.5-0.3-0.7-0.1-1.3,0c0,0.3,0.2,0.4,0.5,0.4
		C254.9,67.8,255.1,67.7,255.3,67.6z"/>
	<path class="st0" d="M257.4,69.1c-0.6-0.8-1.9-0.5-2.8-1C254.9,68.9,256.9,68.9,257.4,69.1z"/>
	<path class="st0" d="M258.7,66.4c0.2,0,0.4,0,0.5,0.1c0.2-0.1,0.1-0.4,0.1-0.7C258.9,65.8,258.8,66.1,258.7,66.4z"/>
	<path class="st0" d="M267.5,61.1c0.8,0,1.4,0.6,2,0.4C268.9,61.3,268.1,60.9,267.5,61.1z"/>
	<path class="st0" d="M189,63.7C189,63.6,189.1,63.6,189,63.7C189,63.6,189,63.6,189,63.7z"/>
	<path class="st0" d="M189.1,63.5C189.1,63.5,189.1,63.5,189.1,63.5C189.1,63.5,189.1,63.6,189.1,63.5
		C189.1,63.6,189.1,63.6,189.1,63.5z"/>
	<path class="st0" d="M5.4,47.9c0-0.4-1-0.1-1.2,0C4.8,47.9,4.8,47.8,5.4,47.9z"/>
	<path class="st0" d="M16.4,42.8c0-0.3-0.4-0.2-0.4-0.5c-0.5,0-0.6,0.2-0.8,0.3C15.8,42.4,16,42.5,16.4,42.8z"/>
	<path class="st0" d="M21.6,36c0,0.2-0.1,0.3-0.3,0.3c0.1-0.3-0.6-0.4-0.7-0.2c0.5-0.1,0.3,0.4,0.8,0.3C21.8,36.3,22.2,36.1,21.6,36
		z"/>
	<path class="st0" d="M36.2,29.1c-0.2,0.1-0.5,0.2-0.5,0.5C36,29.1,38.1,29.3,36.2,29.1z"/>
	<path class="st0" d="M37.5,26.6c-0.4-0.1-0.9-0.2-1.3-0.3c0.1,0.2-0.2,0.3,0,0.3C36.5,26.2,37.2,27,37.5,26.6z"/>
	<path class="st0" d="M36.3,8.8c-0.1-0.2-0.7,0.1-0.8-0.2c0.8-0.4,1.4,0.3,2.3,0.2c0-0.1,0-0.3,0.1-0.3c0.1,0.1,0.2,0.3,0.4,0.4
		c0.9-0.3,2.6,0.1,3.3-0.6c-0.2-0.1-1,0-0.5-0.4c-0.7,0-0.1,0.3-0.4,0.4c0-0.1-0.1-0.1-0.3-0.1c0.2-0.5-0.9,0-1.3-0.3
		c-0.3,0.2,0.3,0.3-0.1,0.4c-0.3-0.3-0.9-0.4-0.8,0c0.1-0.2-1,0.1-0.7-0.3c-1.4,0.1-1.3-0.1-2.4,0.1c0.1,0.4,0,0.3,0.2,0.6
		C35.8,8.7,36,9,36.3,8.8z"/>
	<path class="st0" d="M37.4,20.3c-0.5,0.1-1.6-0.3-1.5,0C36.4,20.2,37,20.6,37.4,20.3z"/>
	<path class="st0" d="M38.2,27.4c0.3,0,0.4,0.2,0.5,0.3c-0.1-0.3,0.7,0.1,0.7-0.2C38.9,27.5,38.4,27.2,38.2,27.4z"/>
	<path class="st0" d="M51.1,31.2c-0.6-0.1-1.1,0-1.5,0.1C50.1,31.4,50.8,31.3,51.1,31.2z"/>
	<path class="st0" d="M54.9,16.9c0.4-0.1,0.9-0.1,1.2-0.3C55.8,16.6,55,16.6,54.9,16.9z"/>
	<path class="st0" d="M59.6,13.4c0,0.4-0.7,0.3-0.9,0.5C59,14.1,60,13.6,59.6,13.4z"/>
	<path class="st0" d="M61.3,8c0-0.2,0.4-0.1,0.4-0.2c-0.2,0.1-0.5-0.4-0.2-0.4c0.2,0.1,0.3-0.2,0.6-0.4c-0.6,0.3-1.8,0.3-1.9,0.7
		C60.7,7.3,61.5,7.5,61.3,8z"/>
	<path class="st0" d="M71.5,8.9c0.3,0,0.4-0.2,0.8-0.1c-0.1,0.2-0.2,0.3-0.2,0.4c2-0.6,5.1,0.2,7.2-0.7c0.7,0.6,1.6-0.6,2,0.1
		c-0.1-0.3-0.1-0.2,0-0.5c-0.8,0.4-2.1,0.2-2.4-0.2c0,0,0,0-0.1-0.1c0,0.1,0,0.1,0.1,0.1c0.1,0,0.2-0.7,0.6-0.3
		c0.2-0.2-0.4-0.4,0-0.4c0.3,0.1,0.5,0.3,0.7,0.5c0.3-0.1,0.5-0.2,0.8-0.3c0,0.1,0,0.3,0.2,0.3C80.9,7,81.7,7.4,82,7.4
		c-0.3-0.4-1-0.3-1.2-0.7c-0.1,0.4-0.2,0.1-0.7,0.1c0-0.1,0-0.3-0.2-0.3c-0.1,0.1-0.6-0.2-0.9,0.2c0.3,0,0.3,0.1,0.2,0.3
		C78.5,7,77.7,7.3,77,6.9c0,0.6-0.5,0.3-1.1,0.3c0,0.2,0.1,0.4-0.1,0.4c-0.3,0-0.3-0.3-0.4-0.4c0.2,0,0.8-0.2,0.4-0.3
		c0,0.3-0.9,0-0.9,0.3c0.3,0,0.4,0.1,0.4,0.3c-0.3-0.2-0.3,0.2-0.8,0.1c0,0.3,0,0.6-0.2,0.7c-0.4-0.5-0.7,0.2-1.2,0.3
		c-0.4-0.2-0.7-0.5-0.9-0.9c-0.4,0.1-0.5,0-0.7,0.1c0.3,0,0.3,0.3,0.4,0.4c-0.8,0.3-1.1,0.2-2,0.1c-0.2,0.3-0.4,0.5-0.8,0.4
		C69.6,9,71.1,8.3,71.5,8.9z M77.2,7.9c0.2,0.4-0.7,0-0.5,0.4c-0.2,0-0.1-0.2-0.2-0.3C76.7,8,76.9,7.9,77.2,7.9z"/>
	<path class="st0" d="M73.5,56.7c0.5-0.1,1-0.1,1.2-0.4c-0.4,0.1-1.3-0.3-1.1,0C74.1,56.4,73.6,56.6,73.5,56.7z"/>
	<path class="st0" d="M77.8,57.7c0-0.1-0.1-0.1-0.3-0.1c0.1,0.6,1.9-0.3,1.9-0.3c-0.3,0.2-1.3,0-1.6,0.3
		C77.9,57.6,78,57.7,77.8,57.7z"/>
	<path class="st0" d="M80.8,58.4c-0.4-0.2-1.3-0.3-1.1-0.6c0.7-0.1,2.3,0.1,2.5-0.2c-0.9,0-3,0.1-3.9,0.5c0.7,0,0.7,0,1.5,0
		c0.4,0.7,2.9,0.3,3.4-0.1C82.2,58.1,80.8,58.1,80.8,58.4z"/>
	<path class="st0" d="M84.2,57c-0.5,0-0.5,0.4-0.8,0.6c0.4,0,0.5,0.1,0.3,0.3c0.2,0,0.5,0,0.5-0.1c-0.2-0.1-0.4-0.1-0.6-0.3
		C83.9,57.3,84.4,57.4,84.2,57z"/>
	<path class="st0" d="M86.3,56.4c-0.3,0.2-0.8-0.1-1.1,0.2C85.5,56.6,86.2,56.8,86.3,56.4z"/>
	<path class="st0" d="M93.7,8.3C93,8,94,7.8,93.7,7.5c0,0.4-0.5,0.4-0.6,0.7C93.5,8,93.3,8.4,93.7,8.3z"/>
	<path class="st0" d="M109.8,60c0.5,0,1.4,0.3,1.7,0C111,60,110,59.8,109.8,60z"/>
	<path class="st0" d="M118.3,59.4c-0.5-0.1-1-0.3-1.3,0.1C117.5,59.4,118.1,59.6,118.3,59.4z"/>
	<path class="st0" d="M132.3,59.1c-0.5,0.1-0.7,0.3-1,0.5c0.1,0,0.2,0,0.1,0.1l0.3,0C131.7,59.2,132.3,59.4,132.3,59.1z"/>
	<path class="st0" d="M140.1,59.1c-0.3,0.2,0.3,0.5-0.2,0.6c-0.9-0.3-2.2,0.4-2.7-0.2c0.5-0.3,1.9,0.3,2.2-0.5
		c-0.8,0-1.7,0.3-2.3-0.1l-0.4,0.3c-0.5-0.2,0.1-0.2-0.1-0.3c-0.2,0.3-1.3-0.2-0.6,0.2c-1.1-0.3-2.1-0.4-3.2-0.1
		c0.9,0,1,0.2,1.5,0.3c-0.9,0.3-1.4-0.4-2,0.1c0.2,0,0.1,0.2,0,0.3c0.3,0,0.8-0.1,0.8,0.2c-0.1,0.2-1.1-0.2-1.2,0.3
		c3.3-0.3,5.9-0.3,9.2-0.4c-0.2-0.1-0.6-0.1-0.8-0.3c0.1,0,0.3,0,0.3-0.1c-0.1,0-0.3,0-0.3-0.1c0.5,0.1,1.2-0.2,0.9-0.3
		C141.1,59.4,140.5,59.2,140.1,59.1z M134.4,59.5c-0.1-0.3,0.6-0.4,0.8-0.2C135.1,59.4,134.8,59.5,134.4,59.5z"/>
	<path class="st0" d="M146.8,59.4c0.1,0,0.2,0.1,0.1,0.2c0.5-0.2,1,0.1,1.3-0.2C147.8,59.3,147.3,59.1,146.8,59.4z"/>
	<path class="st0" d="M159.9,59.4c0.4-0.1,0.9,0.2,1,0C160.6,59.4,160.1,59,159.9,59.4z"/>
	<path class="st0" d="M200,0.5c-0.3-0.2-0.9,0-0.7-0.5C198.3,0,199.7,0.9,200,0.5z"/>
	<path class="st0" d="M220.8,70c-0.5,0.2-0.9,0-1-0.3c0,0.2,0,0.3-0.1,0.4c0.4,0,0.7,0,0.7,0.3c0.5-0.1,0.7,0.3,0.8-0.1
		C220.9,70.3,220.9,70.1,220.8,70z"/>
	<path class="st0" d="M229.8,2.5c0.2-0.3,0.5-0.1,0.7-0.4c-0.2,0-0.3-0.1-0.4-0.2c0.4-0.1,0.5,0,0.9,0c0-0.2-0.1-0.2-0.1-0.4
		c0.5,0.2,0.8-0.2,1.1-0.3c-0.4,0-0.4-0.2-0.8-0.2c-0.4,0.4-0.8,0.3-1.6,0.4c0,0.2-0.2,0.2-0.3,0.3c0.3,0,0.5,0.2,0.7,0.3
		C229.8,2.1,229.5,2.5,229.8,2.5z"/>
	<path class="st0" d="M253,66.8c0,0.3,0.7,0.7,0.8,0.6C253.4,67.3,253.5,66.9,253,66.8z"/>
	<path class="st0" d="M257,68c0.4,0.3,0.6,0.3,1.2,0.5C258,68,257.3,68,257,68z"/>
	<path class="st0" d="M258.2,69.3c-0.2,0-0.5-0.6-0.8-0.2C257.5,69.3,259.1,69.5,258.2,69.3z"/>
	<path class="st0" d="M64.6,7.6c0.6,0,0.7-0.3,1-0.5c0.4,0.1,0.5,0.3,0.8,0.5c0.5-0.3,1.5,0,2.4-0.2c-0.6,0.1-0.8-0.2-1.1-0.5
		c-0.5,0.3-0.8,0.1-1.2,0.4c0-0.2-0.1-0.2-0.3-0.1c0-0.3,0-0.5-0.3-0.5c-0.3,0.3-0.9,0.4-1.2,0.7c-0.1-0.1-0.2-0.3-0.4-0.4
		c0,0.1,0,0.2-0.1,0.3C64.6,7.3,64.6,7.4,64.6,7.6z"/>
</g>
</svg>
